# MagicaVoxel @ Ephtracy

# group
g Mole3

# material
mtllib Mole3.mtl
usemtl palette

# normals
vn -1 0 0
vn 1 0 0
vn 0 0 1
vn 0 0 -1
vn 0 -1 0
vn 0 1 0

# texcoords
vt 0.240234 0.5
vt 0.271484 0.5
vt 0.275391 0.5
vt 0.294922 0.5
vt 0.302734 0.5
vt 0.306641 0.5
vt 0.912109 0.5
vt 0.958984 0.5
vt 0.990234 0.5
vt 0.994141 0.5

# verts
v -13 0 12
v -13 0 -16
v -13 40 12
v -13 40 -16
v -11 4 14
v -11 4 13
v -11 4 12
v -11 5 13
v -11 5 12
v -11 14 14
v -11 14 12
v -8 28 13
v -8 28 12
v -8 37 13
v -8 37 12
v -6 15 14
v -6 15 13
v -6 15 12
v -6 17 13
v -6 17 12
v -6 27 14
v -6 27 12
v -5 16 16
v -5 16 14
v -5 26 16
v -5 26 14
v -4 17 18
v -4 17 16
v -4 25 18
v -4 25 16
v -3 18 19
v -3 18 18
v -3 24 19
v -3 24 18
v -1 20 20
v -1 20 19
v -1 22 20
v -1 22 19
v 4 28 13
v 4 28 12
v 4 37 13
v 4 37 12
v 5 7 10
v 5 7 9
v 5 16 10
v 5 16 9
v 7 4 14
v 7 4 13
v 7 5 13
v 7 5 12
v 7 14 14
v 7 14 12
v 8 6 11
v 8 6 10
v 8 18 11
v 8 18 10
v 10 4 13
v 10 4 12
v 10 5 13
v 10 5 12
v -6 4 14
v -6 4 12
v -6 14 14
v -6 14 12
v -5 6 11
v -5 6 10
v -5 18 11
v -5 18 10
v -3 7 10
v -3 7 9
v -3 16 10
v -3 16 9
v -3 28 13
v -3 28 12
v -3 33 13
v -3 33 12
v -3 37 13
v -3 37 12
v 2 20 20
v 2 20 19
v 2 22 20
v 2 22 19
v 4 18 19
v 4 18 18
v 4 24 19
v 4 24 18
v 5 17 18
v 5 17 16
v 5 25 18
v 5 25 16
v 6 16 16
v 6 16 14
v 6 26 16
v 6 26 14
v 7 15 14
v 7 15 12
v 7 27 14
v 7 27 12
v 9 28 13
v 9 28 12
v 9 33 13
v 9 33 12
v 9 37 13
v 9 37 12
v 12 4 14
v 12 4 12
v 12 14 14
v 12 14 12
v 14 0 12
v 14 0 -16
v 14 40 12
v 14 40 -16
v -1 20 20
v -1 22 20
v 2 20 20
v 2 22 20
v -3 18 19
v -3 24 19
v -1 20 19
v -1 22 19
v 2 20 19
v 2 22 19
v 4 18 19
v 4 24 19
v -4 17 18
v -4 25 18
v -3 18 18
v -3 24 18
v 4 18 18
v 4 24 18
v 5 17 18
v 5 25 18
v -5 16 16
v -5 26 16
v -4 17 16
v -4 25 16
v 5 17 16
v 5 25 16
v 6 16 16
v 6 26 16
v -11 4 14
v -11 14 14
v -10 4 14
v -10 6 14
v -9 4 14
v -9 6 14
v -8 4 14
v -8 6 14
v -7 4 14
v -7 6 14
v -6 4 14
v -6 14 14
v -6 15 14
v -6 27 14
v -5 16 14
v -5 26 14
v 6 16 14
v 6 26 14
v 7 4 14
v 7 14 14
v 7 15 14
v 7 27 14
v 8 4 14
v 8 6 14
v 9 4 14
v 9 6 14
v 10 4 14
v 10 6 14
v 11 4 14
v 11 6 14
v 12 4 14
v 12 14 14
v -8 28 13
v -8 37 13
v -5 33 13
v -5 37 13
v -3 28 13
v -3 33 13
v -3 37 13
v 4 28 13
v 4 37 13
v 7 33 13
v 7 37 13
v 9 28 13
v 9 33 13
v 9 37 13
v -13 0 12
v -13 40 12
v -11 4 12
v -11 5 12
v -11 14 12
v -8 28 12
v -8 37 12
v -7 4 12
v -6 4 12
v -6 14 12
v -6 15 12
v -6 17 12
v -6 27 12
v -5 15 12
v -5 37 12
v -3 28 12
v -3 33 12
v -3 37 12
v 4 28 12
v 4 37 12
v 7 5 12
v 7 14 12
v 7 15 12
v 7 27 12
v 7 37 12
v 9 28 12
v 9 33 12
v 9 37 12
v 10 4 12
v 10 5 12
v 12 4 12
v 12 14 12
v 14 0 12
v 14 40 12
v -5 6 10
v -5 18 10
v -3 7 10
v -3 16 10
v 5 7 10
v 5 16 10
v 8 6 10
v 8 18 10
v -3 7 9
v -3 16 9
v 5 7 9
v 5 16 9
v 7 4 13
v 7 5 13
v 8 4 13
v 8 5 13
v 9 4 13
v 9 5 13
v 10 4 13
v 10 5 13
v -5 6 11
v -5 18 11
v 8 6 11
v 8 18 11
v -13 0 -16
v -13 40 -16
v 14 0 -16
v 14 40 -16
v -13 0 12
v 14 0 12
v -13 0 -16
v 14 0 -16
v -11 4 14
v -10 4 14
v -9 4 14
v -8 4 14
v -7 4 14
v -6 4 14
v 7 4 14
v 8 4 14
v 9 4 14
v 10 4 14
v 11 4 14
v 12 4 14
v -11 4 13
v -10 4 13
v -9 4 13
v -8 4 13
v -7 4 13
v 7 4 13
v 8 4 13
v 9 4 13
v 10 4 13
v 11 4 13
v -11 4 12
v -7 4 12
v -6 4 12
v 10 4 12
v 12 4 12
v 7 5 13
v 8 5 13
v 9 5 13
v 10 5 13
v 7 5 12
v 10 5 12
v -6 15 14
v 7 15 14
v -6 15 13
v -5 15 13
v -6 15 12
v -5 15 12
v 7 15 12
v -5 16 16
v 6 16 16
v -5 16 14
v 6 16 14
v -3 16 10
v 5 16 10
v -3 16 9
v 5 16 9
v -4 17 18
v 5 17 18
v -4 17 16
v 5 17 16
v -3 18 19
v 4 18 19
v -3 18 18
v 4 18 18
v -5 18 11
v 8 18 11
v -5 18 10
v 8 18 10
v -1 20 20
v 2 20 20
v -1 20 19
v 2 20 19
v -8 28 13
v -3 28 13
v 4 28 13
v 9 28 13
v -8 28 12
v -3 28 12
v 4 28 12
v 9 28 12
v -5 6 11
v 8 6 11
v -5 6 10
v 8 6 10
v -3 7 10
v 5 7 10
v -3 7 9
v 5 7 9
v -11 14 14
v -6 14 14
v 7 14 14
v 12 14 14
v -11 14 12
v -6 14 12
v 7 14 12
v 12 14 12
v -1 22 20
v 2 22 20
v -1 22 19
v 2 22 19
v -3 24 19
v 4 24 19
v -3 24 18
v 4 24 18
v -4 25 18
v 5 25 18
v -4 25 16
v 5 25 16
v -5 26 16
v 6 26 16
v -5 26 14
v 6 26 14
v -6 27 14
v 7 27 14
v -6 27 12
v 7 27 12
v -8 37 13
v -5 37 13
v -3 37 13
v 4 37 13
v 7 37 13
v 9 37 13
v -8 37 12
v -5 37 12
v -3 37 12
v 4 37 12
v 7 37 12
v 9 37 12
v -13 40 12
v 14 40 12
v -13 40 -16
v 14 40 -16

# faces
f 3/5/1 2/5/1 1/5/1
f 4/5/1 2/5/1 3/5/1
f 8/2/1 6/2/1 5/2/1
f 8/6/1 7/6/1 6/6/1
f 9/6/1 7/6/1 8/6/1
f 10/2/1 8/2/1 5/2/1
f 10/2/1 9/2/1 8/2/1
f 11/2/1 9/2/1 10/2/1
f 14/9/1 13/9/1 12/9/1
f 15/9/1 13/9/1 14/9/1
f 19/4/1 17/4/1 16/4/1
f 19/3/1 18/3/1 17/3/1
f 20/3/1 18/3/1 19/3/1
f 21/4/1 19/4/1 16/4/1
f 21/4/1 20/4/1 19/4/1
f 22/4/1 20/4/1 21/4/1
f 25/4/1 24/4/1 23/4/1
f 26/4/1 24/4/1 25/4/1
f 29/4/1 28/4/1 27/4/1
f 30/4/1 28/4/1 29/4/1
f 33/4/1 32/4/1 31/4/1
f 34/4/1 32/4/1 33/4/1
f 37/10/1 36/10/1 35/10/1
f 38/10/1 36/10/1 37/10/1
f 41/9/1 40/9/1 39/9/1
f 42/9/1 40/9/1 41/9/1
f 45/5/1 44/5/1 43/5/1
f 46/5/1 44/5/1 45/5/1
f 49/2/1 48/2/1 47/2/1
f 51/2/1 49/2/1 47/2/1
f 51/2/1 50/2/1 49/2/1
f 52/2/1 50/2/1 51/2/1
f 55/5/1 54/5/1 53/5/1
f 56/5/1 54/5/1 55/5/1
f 59/2/1 58/2/1 57/2/1
f 60/2/1 58/2/1 59/2/1
f 61/2/2 62/2/2 63/2/2
f 63/2/2 62/2/2 64/2/2
f 65/5/2 66/5/2 67/5/2
f 67/5/2 66/5/2 68/5/2
f 69/5/2 70/5/2 71/5/2
f 71/5/2 70/5/2 72/5/2
f 73/9/2 74/9/2 75/9/2
f 75/9/2 74/9/2 76/9/2
f 75/7/2 76/7/2 77/7/2
f 77/7/2 76/7/2 78/7/2
f 79/10/2 80/10/2 81/10/2
f 81/10/2 80/10/2 82/10/2
f 83/4/2 84/4/2 85/4/2
f 85/4/2 84/4/2 86/4/2
f 87/4/2 88/4/2 89/4/2
f 89/4/2 88/4/2 90/4/2
f 91/4/2 92/4/2 93/4/2
f 93/4/2 92/4/2 94/4/2
f 95/4/2 96/4/2 97/4/2
f 97/4/2 96/4/2 98/4/2
f 99/9/2 100/9/2 101/9/2
f 101/9/2 100/9/2 102/9/2
f 101/7/2 102/7/2 103/7/2
f 103/7/2 102/7/2 104/7/2
f 105/2/2 106/2/2 107/2/2
f 107/2/2 106/2/2 108/2/2
f 109/5/2 110/5/2 111/5/2
f 111/5/2 110/5/2 112/5/2
f 115/10/3 114/10/3 113/10/3
f 116/10/3 114/10/3 115/10/3
f 119/4/3 118/4/3 117/4/3
f 120/4/3 118/4/3 119/4/3
f 121/4/3 119/4/3 117/4/3
f 122/4/3 118/4/3 120/4/3
f 123/4/3 121/4/3 117/4/3
f 123/4/3 122/4/3 121/4/3
f 124/4/3 118/4/3 122/4/3
f 124/4/3 122/4/3 123/4/3
f 127/4/3 126/4/3 125/4/3
f 128/4/3 126/4/3 127/4/3
f 129/4/3 127/4/3 125/4/3
f 130/4/3 126/4/3 128/4/3
f 131/4/3 129/4/3 125/4/3
f 131/4/3 130/4/3 129/4/3
f 132/4/3 126/4/3 130/4/3
f 132/4/3 130/4/3 131/4/3
f 135/4/3 134/4/3 133/4/3
f 136/4/3 134/4/3 135/4/3
f 137/4/3 135/4/3 133/4/3
f 138/4/3 134/4/3 136/4/3
f 139/4/3 137/4/3 133/4/3
f 139/4/3 138/4/3 137/4/3
f 140/4/3 134/4/3 138/4/3
f 140/4/3 138/4/3 139/4/3
f 143/2/3 142/2/3 141/2/3
f 144/2/3 142/2/3 143/2/3
f 145/10/3 144/10/3 143/10/3
f 146/2/3 142/2/3 144/2/3
f 146/10/3 144/10/3 145/10/3
f 147/2/3 146/2/3 145/2/3
f 148/2/3 142/2/3 146/2/3
f 148/2/3 146/2/3 147/2/3
f 149/10/3 148/10/3 147/10/3
f 150/2/3 142/2/3 148/2/3
f 150/10/3 148/10/3 149/10/3
f 151/2/3 150/2/3 149/2/3
f 152/2/3 142/2/3 150/2/3
f 152/2/3 150/2/3 151/2/3
f 155/4/3 154/4/3 153/4/3
f 156/4/3 154/4/3 155/4/3
f 157/4/3 155/4/3 153/4/3
f 158/4/3 154/4/3 156/4/3
f 161/4/3 157/4/3 153/4/3
f 161/4/3 158/4/3 157/4/3
f 162/4/3 154/4/3 158/4/3
f 162/4/3 158/4/3 161/4/3
f 163/2/3 160/2/3 159/2/3
f 164/2/3 160/2/3 163/2/3
f 165/10/3 164/10/3 163/10/3
f 166/2/3 160/2/3 164/2/3
f 166/10/3 164/10/3 165/10/3
f 167/2/3 166/2/3 165/2/3
f 168/2/3 160/2/3 166/2/3
f 168/2/3 166/2/3 167/2/3
f 169/10/3 168/10/3 167/10/3
f 170/2/3 160/2/3 168/2/3
f 170/10/3 168/10/3 169/10/3
f 171/2/3 170/2/3 169/2/3
f 172/2/3 160/2/3 170/2/3
f 172/2/3 170/2/3 171/2/3
f 175/9/3 174/9/3 173/9/3
f 176/9/3 174/9/3 175/9/3
f 177/9/3 175/9/3 173/9/3
f 178/7/3 176/7/3 175/7/3
f 178/9/3 175/9/3 177/9/3
f 179/7/3 176/7/3 178/7/3
f 182/9/3 181/9/3 180/9/3
f 183/9/3 181/9/3 182/9/3
f 184/9/3 182/9/3 180/9/3
f 185/7/3 183/7/3 182/7/3
f 185/9/3 182/9/3 184/9/3
f 186/7/3 183/7/3 185/7/3
f 189/5/3 188/5/3 187/5/3
f 190/5/3 188/5/3 189/5/3
f 191/5/3 188/5/3 190/5/3
f 192/5/3 188/5/3 191/5/3
f 193/5/3 188/5/3 192/5/3
f 194/5/3 189/5/3 187/5/3
f 195/5/3 194/5/3 187/5/3
f 196/5/3 192/5/3 191/5/3
f 197/5/3 192/5/3 196/5/3
f 198/5/3 192/5/3 197/5/3
f 199/5/3 192/5/3 198/5/3
f 200/5/3 196/5/3 195/5/3
f 200/5/3 197/5/3 196/5/3
f 201/5/3 188/5/3 193/5/3
f 202/5/3 192/5/3 199/5/3
f 204/5/3 188/5/3 201/5/3
f 205/5/3 203/5/3 202/5/3
f 205/5/3 204/5/3 203/5/3
f 205/5/3 202/5/3 199/5/3
f 206/5/3 188/5/3 204/5/3
f 206/5/3 204/5/3 205/5/3
f 207/5/3 200/5/3 195/5/3
f 208/5/3 200/5/3 207/5/3
f 209/5/3 200/5/3 208/5/3
f 210/5/3 205/5/3 199/5/3
f 211/5/3 188/5/3 206/5/3
f 212/5/3 210/5/3 209/5/3
f 212/5/3 209/5/3 208/5/3
f 212/5/3 205/5/3 210/5/3
f 214/5/3 188/5/3 211/5/3
f 215/5/3 195/5/3 187/5/3
f 215/5/3 207/5/3 195/5/3
f 216/5/3 207/5/3 215/5/3
f 217/5/3 215/5/3 187/5/3
f 218/5/3 213/5/3 212/5/3
f 218/5/3 214/5/3 213/5/3
f 218/5/3 212/5/3 208/5/3
f 219/5/3 217/5/3 187/5/3
f 219/5/3 218/5/3 217/5/3
f 220/5/3 214/5/3 218/5/3
f 220/5/3 218/5/3 219/5/3
f 220/5/3 188/5/3 214/5/3
f 223/5/3 222/5/3 221/5/3
f 224/5/3 222/5/3 223/5/3
f 225/5/3 223/5/3 221/5/3
f 226/5/3 222/5/3 224/5/3
f 227/5/3 225/5/3 221/5/3
f 227/5/3 226/5/3 225/5/3
f 228/5/3 222/5/3 226/5/3
f 228/5/3 226/5/3 227/5/3
f 231/5/3 230/5/3 229/5/3
f 232/5/3 230/5/3 231/5/3
f 233/2/4 234/2/4 235/2/4
f 235/2/4 234/2/4 236/2/4
f 235/10/4 236/10/4 237/10/4
f 237/10/4 236/10/4 238/10/4
f 237/2/4 238/2/4 239/2/4
f 239/2/4 238/2/4 240/2/4
f 241/5/4 242/5/4 243/5/4
f 243/5/4 242/5/4 244/5/4
f 245/5/4 246/5/4 247/5/4
f 247/5/4 246/5/4 248/5/4
f 251/5/5 250/5/5 249/5/5
f 252/5/5 250/5/5 251/5/5
f 265/2/5 254/2/5 253/2/5
f 266/10/5 255/10/5 254/10/5
f 266/2/5 254/2/5 265/2/5
f 267/2/5 256/2/5 255/2/5
f 267/10/5 255/10/5 266/10/5
f 268/10/5 257/10/5 256/10/5
f 268/2/5 256/2/5 267/2/5
f 269/2/5 258/2/5 257/2/5
f 269/10/5 257/10/5 268/10/5
f 270/2/5 260/2/5 259/2/5
f 271/10/5 261/10/5 260/10/5
f 271/2/5 260/2/5 270/2/5
f 272/2/5 262/2/5 261/2/5
f 272/10/5 261/10/5 271/10/5
f 273/10/5 263/10/5 262/10/5
f 273/2/5 262/2/5 272/2/5
f 274/2/5 264/2/5 263/2/5
f 274/10/5 263/10/5 273/10/5
f 275/6/5 266/6/5 265/6/5
f 275/6/5 267/6/5 266/6/5
f 275/6/5 269/6/5 268/6/5
f 275/6/5 268/6/5 267/6/5
f 276/2/5 258/2/5 269/2/5
f 276/6/5 269/6/5 275/6/5
f 277/2/5 258/2/5 276/2/5
f 278/2/5 274/2/5 273/2/5
f 279/2/5 264/2/5 274/2/5
f 279/2/5 274/2/5 278/2/5
f 284/2/5 281/2/5 280/2/5
f 284/2/5 283/2/5 282/2/5
f 284/2/5 282/2/5 281/2/5
f 285/2/5 283/2/5 284/2/5
f 288/4/5 287/4/5 286/4/5
f 289/4/5 287/4/5 288/4/5
f 290/3/5 289/3/5 288/3/5
f 291/4/5 287/4/5 289/4/5
f 291/3/5 289/3/5 290/3/5
f 292/4/5 287/4/5 291/4/5
f 295/4/5 294/4/5 293/4/5
f 296/4/5 294/4/5 295/4/5
f 299/5/5 298/5/5 297/5/5
f 300/5/5 298/5/5 299/5/5
f 303/4/5 302/4/5 301/4/5
f 304/4/5 302/4/5 303/4/5
f 307/4/5 306/4/5 305/4/5
f 308/4/5 306/4/5 307/4/5
f 311/5/5 310/5/5 309/5/5
f 312/5/5 310/5/5 311/5/5
f 315/10/5 314/10/5 313/10/5
f 316/10/5 314/10/5 315/10/5
f 321/9/5 318/9/5 317/9/5
f 322/9/5 318/9/5 321/9/5
f 323/9/5 320/9/5 319/9/5
f 324/9/5 320/9/5 323/9/5
f 325/5/6 326/5/6 327/5/6
f 327/5/6 326/5/6 328/5/6
f 329/5/6 330/5/6 331/5/6
f 331/5/6 330/5/6 332/5/6
f 333/2/6 334/2/6 337/2/6
f 337/2/6 334/2/6 338/2/6
f 335/2/6 336/2/6 339/2/6
f 339/2/6 336/2/6 340/2/6
f 341/10/6 342/10/6 343/10/6
f 343/10/6 342/10/6 344/10/6
f 345/4/6 346/4/6 347/4/6
f 347/4/6 346/4/6 348/4/6
f 349/4/6 350/4/6 351/4/6
f 351/4/6 350/4/6 352/4/6
f 353/4/6 354/4/6 355/4/6
f 355/4/6 354/4/6 356/4/6
f 357/4/6 358/4/6 359/4/6
f 359/4/6 358/4/6 360/4/6
f 361/9/6 362/9/6 367/9/6
f 362/7/6 363/7/6 368/7/6
f 367/9/6 362/9/6 368/9/6
f 368/7/6 363/7/6 369/7/6
f 364/9/6 365/9/6 370/9/6
f 365/7/6 366/7/6 371/7/6
f 370/9/6 365/9/6 371/9/6
f 371/7/6 366/7/6 372/7/6
f 373/5/6 374/5/6 375/5/6
f 375/5/6 374/5/6 376/5/6
